<?xml version="1.0" standalone="no"?>
<!DOCTYPE svg PUBLIC "-//W3C//DTD SVG 20010904//EN"
 "http://www.w3.org/TR/2001/REC-SVG-20010904/DTD/svg10.dtd">
<svg version="1.0" xmlns="http://www.w3.org/2000/svg"
 width="2500.000000pt" height="2500.000000pt" viewBox="0 0 2500.000000 2500.000000"
 preserveAspectRatio="xMidYMid meet">
<metadata>
Created by potrace 1.11, written by Peter Selinger 2001-2013
</metadata>
<g transform="translate(0.000000,2500.000000) scale(0.100000,-0.100000)"
fill="#000000" stroke="none">
<path d="M5730 13925 l0 -7925 4366 0 4367 0 761 -766 c419 -422 762 -773 764
-780 3 -12 -567 -14 -3670 -14 l-3674 0 -289 -317 c-160 -174 -428 -467 -597
-652 l-308 -336 2955 -3 c1625 -1 4285 -1 5910 0 l2954 3 -92 95 c-51 52 -376
390 -722 750 -776 807 -895 929 -2142 2182 l-1002 1008 -4168 0 -4168 0 0
5895 c0 4968 2 5895 14 5895 7 0 43 -29 80 -64 36 -35 323 -301 636 -591 314
-291 693 -643 843 -782 l272 -254 0 -4235 c0 -2595 4 -4234 9 -4234 5 0 18 10
28 23 10 13 263 286 563 608 300 321 564 606 588 632 l42 47 0 3834 0 3834
-197 189 c-109 104 -533 509 -943 899 -410 390 -972 925 -1250 1190 -278 264
-815 776 -1195 1137 -496 473 -696 657 -712 657 l-23 0 0 -7925z"/>
</g>
</svg>
